<?xml version="1.0" encoding="UTF-8" standalone="no"?>
<svg
   width="13.5in"
   height="13.5in"
   viewBox="0 0 974 974"
   version="1.1"
   id="svg1"
   sodipodi:docname="elephant.svg"
   inkscape:version="1.3.2 (091e20e, 2023-11-25, custom)"
   xmlns:inkscape="http://www.inkscape.org/namespaces/inkscape"
   xmlns:sodipodi="http://sodipodi.sourceforge.net/DTD/sodipodi-0.dtd"
   xmlns="http://www.w3.org/2000/svg"
   xmlns:svg="http://www.w3.org/2000/svg">
  <defs
     id="defs1" />
  <sodipodi:namedview
     id="namedview1"
     pagecolor="#ffffff"
     bordercolor="#999999"
     borderopacity="1"
     inkscape:showpageshadow="2"
     inkscape:pageopacity="0"
     inkscape:pagecheckerboard="0"
     inkscape:deskcolor="#d1d1d1"
     inkscape:document-units="in"
     inkscape:zoom="0.30902778"
     inkscape:cx="389.93258"
     inkscape:cy="1072.7191"
     inkscape:window-width="1920"
     inkscape:window-height="1051"
     inkscape:window-x="-9"
     inkscape:window-y="-9"
     inkscape:window-maximized="1"
     inkscape:current-layer="svg1" />
  <rect
     style="fill:#d9f8fa;stroke:#92d7fa;stroke-width:0;stroke-linejoin:round;stroke-dashoffset:799.37;paint-order:fill markers stroke;fill-opacity:1"
     id="rect1"
     width="974"
     height="974"
     x="0"
     y="0"
     inkscape:label="background" />
  <path
     id="Unnamed"
     fill="none"
     stroke="#000000"
     stroke-width="1"
     d="m 516.21293,528.00618 c -18.25,61 14.75,128.5 7.79,195.04 l 13.08,44.15 -79.18,1.81 c -25.47,-0.03 -6.94,-18.38 14.87,-45.12 7.51,-7.13 -30.72,-85.14 -29.17,-99.97 1.86,-13.29 -20.51,-62.56 -25.09,-63.09 -17.77,-2.21 -100.59,150.88 -96.49,168.12 2.44,8.56 22.3,32.7 -7.18,33.06 l -63.7,1.09 c -28.12,-0.09 2.7,-26.71 19.82,-52.27 3.13,-4.79 3.7,-39.08 17.67,-83.15 22.11,-69.78 59.33,-139 50.21,-196.7 -0.5,-2.38 -29.88,14.03 -42.81,7.03 -3.76,-2.38 -4.95,-27.88 -9.16,-28 -46.41,-0.38 -64.38,23.58 -68.87,23 -2.51,-0.5 -3.16,-13.44 -2.08,-17.91 0.79,-2.97 -13.27,3.97 -17.84,7.66 -31.21,26.07 -41.39,132.07 2.33,129.34 14.61,-1.9 19.08,-13.92 9.64,-24.45 -1.05,-1.29 3.87,-0.25 3.91,-2.64 0.09,-4.61 -10.3,-7 -8,-9.03 32.75,-20.72 67.28,69.61 -11.45,75.39 -44.8,3.39 -85.05,-62.36 -80.58,-136.39 0,0 -38.749963,-1.88 -38.009963,-9.01 0.2,-1.17 26.199963,2.26 25.649963,-1.35 -0.31,-1.14 -32.919963,-4.33 -31.669963,-9.75 1.06,-5.36 44.809963,4.64 44.839963,-5.11 2.89,-44.08 83.89,-201.08 152.67,-206.75 37.3,-1.25 60.42,5.01 80.8,3.25 40.1,-3.45 58.13,-14.83 73.63,-14.5 36.12,0.92 64.23,27.02 123.12,37.25 55.98,8.59 115,-0.5 132.62,3.5 58.38,14 118.71,106.5 133.88,141.25 4.86,11.8 12.5,178.34 11,195.25 -2.32,31.64 38.2,124.52 44.19,139.56 6.31,19.53 2.22,28.8 -18.38,31.75 l -45.93543,3.12309 c -5.89796,0.52599 -9.04598,-1.06804 -7.89,-7.8 10.59828,-86.99923 -34.15457,-164.63309 -56.10457,-162.01309 -11.05,1.38 -0.5,144.13 -0.16,153.29 0.28,15.84 -16.97,15.34 -31.6,16.09 l -41.37,-0.62 c -59.5,2.62 5.25,-40.38 8.2,-57.56 4.05,-14.32 3.28,-76.91 1.3,-88.32 -3.11,-16.77 -37.37,-66.5 -43.5,-64.75 -25.25,6.34 -103.61,-12.02 -115,-23.75 z"
     style="fill:#08bcb9;fill-opacity:1;stroke:none;stroke-width:0;stroke-dasharray:none"
     sodipodi:nodetypes="ccccccccccccccccccccccccccccccccccccccccccccccc"
     inkscape:label="elephant" />
</svg>
